<?xml version="1.0" standalone="no"?>
<!DOCTYPE svg PUBLIC "-//W3C//DTD SVG 20010904//EN"
 "http://www.w3.org/TR/2001/REC-SVG-20010904/DTD/svg10.dtd">
<svg version="1.0" xmlns="http://www.w3.org/2000/svg"
 width="566.000000pt" height="566.000000pt" viewBox="0 0 566.000000 566.000000"
 preserveAspectRatio="xMidYMid meet">
<metadata>
Created by potrace 1.14, written by Peter Selinger 2001-2017
</metadata>
<g transform="translate(0.000000,566.000000) scale(0.100000,-0.100000)"
fill="#000000" stroke="none">
<path d="M2122 5277 c-30 -5 -51 -11 -49 -14 3 -2 31 -11 64 -20 83 -21 209
-83 271 -132 53 -43 108 -113 99 -128 -3 -5 -20 -10 -39 -11 -46 -3 -168 -33
-168 -41 0 -4 17 -13 38 -20 179 -63 314 -165 366 -276 14 -29 26 -59 26 -65
0 -5 -27 3 -59 20 -66 33 -139 52 -157 42 -8 -5 16 -37 70 -93 98 -104 180
-216 240 -329 45 -85 87 -182 63 -146 -129 193 -269 347 -417 455 -101 75
-243 145 -342 170 -156 40 -332 12 -459 -72 -66 -43 -144 -122 -114 -114 116
32 287 41 379 20 57 -13 156 -59 156 -73 0 -3 -32 -21 -71 -39 -64 -30 -191
-133 -178 -145 2 -2 63 -6 134 -9 231 -10 425 -66 542 -157 22 -17 20 -17 -56
-23 -79 -5 -171 -36 -171 -57 0 -6 -12 -8 -32 -4 -93 16 -208 5 -312 -31 -230
-80 -359 -298 -390 -658 -2 -23 -5 -46 -6 -52 -1 -5 -8 15 -16 45 -8 30 -33
93 -56 140 -33 67 -58 102 -122 165 -90 89 -168 134 -278 160 -84 19 -231 13
-313 -12 l-60 -19 65 -13 c141 -28 272 -99 312 -168 l18 -30 -47 -7 c-48 -6
-113 -40 -113 -58 0 -6 3 -9 6 -5 10 10 159 -49 206 -81 48 -34 107 -92 92
-92 -33 -2 -90 -13 -97 -20 -5 -4 6 -11 25 -15 56 -12 190 -80 246 -125 29
-23 51 -44 49 -46 -2 -2 -26 5 -54 16 -72 27 -95 31 -198 37 -205 10 -382 -69
-488 -220 -62 -86 -87 -162 -93 -277 l-5 -95 33 58 c44 77 95 138 141 172 21
15 40 26 42 24 2 -2 4 -31 6 -64 1 -33 7 -73 12 -89 l10 -29 18 47 c49 131
140 216 268 252 22 6 20 0 -20 -47 -54 -64 -83 -109 -75 -116 3 -3 40 15 83
39 106 61 195 102 277 127 89 27 103 26 41 -3 -187 -89 -361 -298 -393 -472
-23 -131 23 -280 114 -365 l26 -24 -8 55 c-11 76 -9 181 6 225 l12 36 48 -45
c43 -41 93 -66 106 -54 2 3 -3 25 -12 49 -24 64 -24 213 0 262 22 44 30 46 45
9 7 -15 24 -41 39 -57 l26 -29 8 35 c4 19 10 46 13 61 3 16 21 72 40 125 19
54 35 99 35 101 0 2 4 1 9 -3 9 -5 7 -809 -3 -985 -3 -47 -7 -137 -11 -200 -6
-115 -9 -157 -20 -280 -11 -129 -16 -176 -20 -210 -3 -19 -7 -55 -10 -80 -5
-42 -17 -116 -21 -132 -1 -5 -2 -17 -3 -28 -1 -13 -11 -22 -28 -26 -93 -21
-369 -100 -474 -135 -220 -73 -479 -175 -479 -187 0 -5 4324 -7 4555 -2 l50 1
-110 45 c-195 79 -577 211 -663 228 -66 12 -71 17 -81 69 -15 75 -20 105 -27
167 -3 30 -7 65 -9 76 -2 12 -6 61 -10 110 -3 49 -8 112 -10 139 -21 246 -41
1039 -26 1015 13 -21 33 -152 35 -227 1 -44 10 -41 31 9 l17 43 24 -30 c34
-42 47 -98 42 -177 -5 -73 2 -78 39 -27 l21 31 15 -29 c18 -34 47 -168 47
-215 0 -30 1 -31 14 -13 7 11 26 54 42 95 24 64 28 90 28 180 1 89 -3 112 -23
155 -30 66 -37 185 -9 177 37 -9 106 -83 143 -153 20 -39 40 -67 45 -62 13 15
37 88 35 106 -2 9 1 17 6 17 19 0 103 -86 140 -142 30 -48 38 -54 42 -38 3 11
4 33 2 48 -2 15 -6 49 -9 76 -7 66 -54 163 -102 209 -45 44 -134 89 -214 108
-59 14 -285 18 -335 6 -52 -13 -6 11 64 33 70 22 96 28 161 36 25 4 51 10 59
14 21 11 -21 31 -83 39 l-51 7 45 26 c63 37 171 65 265 67 44 1 82 4 84 7 9 9
-46 57 -93 81 -46 23 -47 25 -28 39 34 23 121 37 199 30 41 -3 78 -8 84 -11 5
-4 9 -2 9 4 0 15 -93 80 -136 94 -57 20 -146 21 -211 2 -120 -34 -269 -146
-364 -273 -60 -79 -64 -83 -39 -32 44 87 137 212 195 262 20 17 20 17 -2 18
-12 0 -44 -9 -72 -19 l-49 -20 6 22 c10 41 113 130 179 157 34 13 59 28 57 32
-3 4 -27 10 -55 14 -27 4 -52 10 -54 15 -21 33 186 163 240 150 6 -1 5 2 -1 9
-21 21 -210 13 -255 -11 -14 -7 -18 4 -29 79 -48 334 -300 579 -645 628 -46 6
-205 6 -250 -1 -66 -10 -156 -35 -217 -60 -32 -13 -58 -22 -58 -20 0 12 75 74
145 120 86 57 175 98 270 126 57 16 59 17 34 27 -21 9 -65 16 -132 21 -15 2
32 52 91 100 56 45 72 54 172 99 55 24 157 52 164 44 3 -3 6 0 6 7 0 31 -118
82 -200 86 -30 2 -28 17 7 63 75 99 225 176 433 220 l85 19 -80 21 c-265 71
-489 42 -697 -90 -144 -93 -285 -268 -345 -432 -8 -23 -26 -79 -38 -126 l-23
-85 -2 50 c-1 28 -3 59 -5 70 -3 11 -7 47 -9 80 -3 33 -8 71 -10 85 -3 13 -8
42 -11 63 -25 166 -136 406 -237 510 -99 103 -261 186 -414 212 -64 11 -235
12 -292 2z m348 -1297 c168 -35 390 -106 390 -125 0 -4 -4 -4 -8 -1 -5 3 -35
8 -68 11 -32 3 -72 9 -89 11 -33 6 -296 6 -335 0 -14 -2 -50 -7 -80 -11 -57
-7 -217 -51 -235 -64 -5 -4 -16 -6 -22 -5 -7 1 -23 2 -34 3 -21 1 -20 2 7 39
51 66 122 111 236 147 77 25 95 24 238 -5z m840 -227 c118 -39 269 -110 391
-184 45 -27 84 -47 86 -45 9 9 -39 86 -101 160 -36 43 -66 80 -66 82 0 6 107
-29 145 -48 117 -60 218 -182 260 -314 17 -55 18 -56 31 -33 16 32 26 98 26
172 0 31 3 57 7 57 9 0 75 -48 112 -82 33 -30 106 -124 125 -159 14 -27 13
-29 -14 -43 -52 -27 -112 -98 -152 -180 -54 -109 -73 -193 -79 -341 -1 -11
-14 16 -29 61 -46 132 -140 246 -242 295 -47 22 -54 30 -85 97 -97 208 -291
406 -500 512 -90 46 -68 44 85 -7z m-440 33 c0 -2 -24 -19 -52 -37 -61 -37
-192 -132 -228 -166 -25 -24 -50 -30 -50 -14 0 19 166 142 244 181 85 42 86
42 86 36z m71 -298 c-5 -353 -17 -836 -26 -1023 -2 -49 -7 -151 -10 -225 -3
-74 -8 -166 -10 -205 -10 -171 -17 -263 -20 -305 -2 -25 -6 -83 -10 -130 -3
-47 -8 -103 -11 -125 -2 -22 -6 -61 -9 -87 -14 -131 -15 -140 -35 -265 l-12
-73 -91 -1 c-159 -2 -391 -15 -439 -24 -10 -2 -51 -6 -91 -10 -40 -3 -81 -7
-92 -9 -11 -2 -42 -7 -70 -10 -27 -4 -92 -13 -142 -21 -51 -8 -95 -15 -97 -15
-3 0 -11 44 -22 130 -2 19 -6 49 -9 65 -2 17 -7 57 -10 90 -3 33 -8 83 -10
110 -5 48 -7 73 -20 260 -20 308 -43 1088 -35 1210 3 46 34 -88 46 -200 4 -38
8 -79 10 -90 1 -11 3 -27 4 -35 1 -8 14 12 30 45 l28 59 30 -48 c17 -27 36
-73 42 -102 11 -52 8 -153 -6 -188 -12 -31 30 2 59 47 l26 39 16 -31 c24 -47
54 -178 57 -249 2 -34 6 -62 9 -62 12 0 74 151 91 220 18 75 19 199 3 264 -35
138 -122 253 -280 371 -95 71 -102 82 -20 35 63 -36 171 -133 210 -189 15 -23
31 -41 35 -41 9 0 4 96 -5 111 -11 17 17 9 60 -15 56 -33 108 -96 152 -185 37
-73 37 -73 55 -51 18 22 38 80 38 115 1 11 11 -5 24 -35 32 -77 55 -120 64
-120 5 0 8 20 8 45 0 25 4 46 10 47 5 1 33 -32 62 -73 30 -41 57 -75 62 -77
13 -5 1 157 -16 223 -8 33 -28 83 -44 111 l-29 52 20 53 c11 29 26 61 33 71
12 17 13 17 24 -7 15 -33 81 -105 97 -105 9 0 9 12 -2 53 -18 65 -12 201 12
272 9 28 34 74 55 104 34 47 40 52 46 35 12 -35 66 -146 69 -142 1 2 6 44 10
93 7 92 8 104 19 190 14 99 43 211 54 201 3 -3 4 -70 3 -148z m152 98 c28 -58
86 -242 108 -340 l13 -59 29 34 c16 19 41 58 56 88 l28 54 20 -34 c63 -102 62
-295 -2 -461 -6 -15 -3 -16 25 -8 52 15 116 57 153 101 19 22 37 37 40 32 39
-64 51 -353 15 -353 -16 0 -102 -62 -136 -100 -47 -51 -82 -128 -96 -212 -11
-65 -10 -148 2 -108 8 28 84 135 112 157 50 41 55 39 57 -22 1 -30 6 -63 11
-72 8 -13 12 -10 21 19 30 91 112 174 195 196 l39 11 -25 -27 c-32 -34 -79
-105 -74 -110 3 -2 35 14 73 36 79 46 195 97 244 107 l34 6 -40 -20 c-226
-117 -361 -382 -282 -555 26 -57 76 -126 90 -126 5 0 6 4 3 9 -13 20 -16 149
-5 194 l11 47 37 -35 c32 -32 75 -54 86 -44 2 2 -3 29 -11 59 -19 73 -17 136
5 185 l18 40 26 -42 c14 -23 30 -44 35 -47 5 -3 16 25 25 62 21 88 56 184 66
178 9 -6 6 -657 -3 -811 -3 -55 -9 -140 -11 -190 -3 -49 -8 -106 -10 -125 -2
-19 -7 -73 -10 -120 -4 -47 -8 -92 -10 -100 -2 -8 -6 -44 -10 -80 -4 -36 -10
-68 -13 -72 -4 -4 -29 -2 -57 3 -27 6 -59 12 -70 14 -11 2 -87 15 -170 29
-183 30 -221 35 -415 52 -41 4 -84 8 -95 9 -11 1 -27 3 -36 4 -12 1 -18 16
-24 59 -4 31 -8 64 -10 72 -1 8 -6 46 -9 83 -4 37 -9 76 -11 85 -1 9 -6 53
-10 97 -3 44 -8 94 -10 110 -2 17 -7 68 -10 115 -3 47 -8 108 -10 135 -7 84
-22 348 -31 550 -9 193 -12 1295 -4 1295 4 0 19 -24 33 -54z m-609 -108 c-24
-41 -87 -119 -92 -116 -4 2 -31 15 -59 29 -29 13 -53 28 -53 32 0 9 78 46 97
47 6 0 10 -10 9 -23 -2 -12 0 -31 4 -41 5 -17 10 -14 29 17 12 21 32 44 44 52
26 18 30 19 21 3z m-140 -234 c-20 -48 -42 -159 -45 -225 l-2 -56 -46 14
c-119 36 -298 47 -453 30 -32 -4 -58 -5 -58 -2 0 15 317 95 378 95 24 0 24 1
8 19 -19 21 -92 41 -132 36 -35 -3 -30 20 8 36 24 10 33 10 36 1 6 -20 20 -14
34 15 15 31 56 46 183 67 101 16 107 14 89 -30z m1464 -407 l32 -33 -33 -2
c-17 -1 -40 -5 -49 -8 -12 -3 -16 -1 -13 8 17 49 25 68 28 68 2 0 17 -15 35
-33z m16 -78 c53 -19 144 -75 176 -108 13 -13 13 -14 -3 -8 -72 27 -143 40
-219 40 -49 1 -88 2 -88 5 0 5 31 62 44 80 12 17 26 15 90 -9z m579 -370 c42
-43 77 -84 77 -91 -1 -7 -10 -2 -21 12 -45 55 -97 105 -154 148 -77 57 -79 59
-25 32 25 -12 80 -58 123 -101z"/>
</g>
</svg>
